<svg xmlns="http://www.w3.org/2000/svg" xmlns:xlink="http://www.w3.org/1999/xlink" viewBox="0 0 437.91 246.2"><defs><style>.cls-1{isolation:isolate;}.cls-2{fill:#2a6496;}.cls-3{fill:#1e4460;}.cls-4{fill:#fff;}.cls-5{fill:url(#Безымянный_градиент_28);}.cls-6{fill:url(#Безымянный_градиент_28-2);}.cls-7{fill:url(#Безымянный_градиент_28-3);}.cls-8{fill:url(#Безымянный_градиент_28-4);}.cls-9{fill:url(#Безымянный_градиент_28-5);}.cls-10{fill:url(#Безымянный_градиент_28-6);}.cls-11{fill:url(#Безымянный_градиент_28-7);}.cls-12{fill:url(#Безымянный_градиент_28-8);}.cls-13{opacity:0.3;}.cls-14{fill:#a6a8ab;opacity:0;mix-blend-mode:multiply;}.cls-15{fill:#a5a7aa;opacity:0.01;}.cls-16{fill:#a3a5a8;opacity:0.02;}.cls-17{fill:#a2a4a7;opacity:0.03;}.cls-18{fill:#a1a3a5;opacity:0.04;}.cls-19{fill:#a0a1a4;opacity:0.05;}.cls-20{fill:#9ea0a3;opacity:0.06;}.cls-21{fill:#9d9fa1;opacity:0.07;}.cls-22{fill:#9c9da0;opacity:0.08;}.cls-23{fill:#9a9c9f;opacity:0.09;}.cls-24{fill:#999a9d;opacity:0.1;}.cls-25{fill:#98999c;opacity:0.11;}.cls-26{fill:#96989a;opacity:0.12;}.cls-27{fill:#959699;opacity:0.13;}.cls-28{fill:#949598;opacity:0.14;}.cls-29{fill:#939496;opacity:0.15;}.cls-30{fill:#919295;opacity:0.16;}.cls-31{fill:#909194;opacity:0.17;}.cls-32{fill:#8f9092;opacity:0.18;}.cls-33{fill:#8d8e91;opacity:0.19;}.cls-34{fill:#8c8d8f;opacity:0.2;}.cls-35{fill:#8b8c8e;opacity:0.21;}.cls-36{fill:#898a8d;opacity:0.22;}.cls-37{fill:#88898b;opacity:0.23;}.cls-38{fill:#87878a;opacity:0.24;}.cls-39{fill:#868689;opacity:0.25;}.cls-40{fill:#848587;opacity:0.26;}.cls-41{fill:#838386;opacity:0.27;}.cls-42{fill:#828284;opacity:0.28;}.cls-43{fill:#808183;opacity:0.29;}.cls-44{fill:#7f7f82;opacity:0.3;}.cls-45{fill:#7e7e80;opacity:0.31;}.cls-46{fill:#7c7d7f;opacity:0.32;}.cls-47{fill:#7b7b7e;opacity:0.33;}.cls-48{fill:#7a7a7c;opacity:0.34;}.cls-49{fill:#79797b;opacity:0.35;}.cls-50{fill:#777779;opacity:0.36;}.cls-51{fill:#767678;opacity:0.37;}.cls-52{fill:#757477;opacity:0.38;}.cls-53{fill:#737375;opacity:0.39;}.cls-54{fill:#727274;opacity:0.4;}.cls-55{fill:#717073;opacity:0.41;}.cls-56{fill:#706f71;opacity:0.42;}.cls-57{fill:#6e6e70;opacity:0.43;}.cls-58{fill:#6d6c6e;opacity:0.44;}.cls-59{fill:#6c6b6d;opacity:0.45;}.cls-60{fill:#6a6a6c;opacity:0.46;}.cls-61{fill:#69686a;opacity:0.47;}.cls-62{fill:#686769;opacity:0.48;}.cls-63{fill:#666668;opacity:0.49;}.cls-64{fill:#656466;opacity:0.5;}.cls-65{fill:#646365;opacity:0.5;}.cls-66{fill:#636163;opacity:0.51;}.cls-67{fill:#616062;opacity:0.52;}.cls-68{fill:#605f61;opacity:0.53;}.cls-69{fill:#5f5d5f;opacity:0.54;}.cls-70{fill:#5d5c5e;opacity:0.55;}.cls-71{fill:#5c5b5d;opacity:0.56;}.cls-72{fill:#5b595b;opacity:0.57;}.cls-73{fill:#59585a;opacity:0.58;}.cls-74{fill:#585758;opacity:0.59;}.cls-75{fill:#575557;opacity:0.6;}.cls-76{fill:#565456;opacity:0.61;}.cls-77{fill:#545354;opacity:0.62;}.cls-78{fill:#535153;opacity:0.63;}.cls-79{fill:#525052;opacity:0.64;}.cls-80{fill:#504e50;opacity:0.65;}.cls-81{fill:#4f4d4f;opacity:0.66;}.cls-82{fill:#4e4c4d;opacity:0.67;}.cls-83{fill:#4d4a4c;opacity:0.68;}.cls-84{fill:#4b494b;opacity:0.69;}.cls-85{fill:#4a4849;opacity:0.7;}.cls-86{fill:#494648;opacity:0.71;}.cls-87{fill:#474547;opacity:0.72;}.cls-88{fill:#464445;opacity:0.73;}.cls-89{fill:#454244;opacity:0.74;}.cls-90{fill:#434142;opacity:0.75;}.cls-91{fill:#424041;opacity:0.76;}.cls-92{fill:#413e40;opacity:0.77;}.cls-93{fill:#403d3e;opacity:0.78;}.cls-94{fill:#3e3b3d;opacity:0.79;}.cls-95{fill:#3d3a3c;opacity:0.8;}.cls-96{fill:#3c393a;opacity:0.81;}.cls-97{fill:#3a3739;opacity:0.82;}.cls-98{fill:#393637;opacity:0.83;}.cls-99{fill:#383536;opacity:0.84;}.cls-100{fill:#363335;opacity:0.85;}.cls-101{fill:#353233;opacity:0.86;}.cls-102{fill:#343132;opacity:0.87;}.cls-103{fill:#332f31;opacity:0.88;}.cls-104{fill:#312e2f;opacity:0.89;}.cls-105{fill:#302d2e;opacity:0.9;}.cls-106{fill:#2f2b2c;opacity:0.91;}.cls-107{fill:#2d2a2b;opacity:0.92;}.cls-108{fill:#2c282a;opacity:0.93;}.cls-109{fill:#2b2728;opacity:0.94;}.cls-110{fill:#292627;opacity:0.95;}.cls-111{fill:#282426;opacity:0.96;}.cls-112{fill:#272324;opacity:0.97;}.cls-113{fill:#262223;opacity:0.98;}.cls-114{fill:#242021;opacity:0.99;}.cls-115{fill:#231f20;}.cls-116{font-size:70px;font-family:TrebuchetMS-Bold, Trebuchet MS;font-weight:700;}</style><linearGradient id="Безымянный_градиент_28" x1="253.96" y1="102.45" x2="280.91" y2="102.45" gradientUnits="userSpaceOnUse"><stop offset="0" stop-color="#2a6496"/><stop offset="0.32" stop-color="#2a6095"/><stop offset="0.6" stop-color="#2a5694"/><stop offset="0.87" stop-color="#2b4391"/><stop offset="1" stop-color="#2b388f"/></linearGradient><linearGradient id="Безымянный_градиент_28-2" x1="258.77" y1="56.57" x2="279.22" y2="56.57" xlink:href="#Безымянный_градиент_28"/><linearGradient id="Безымянный_градиент_28-3" x1="280.91" y1="77.07" x2="296.81" y2="77.07" xlink:href="#Безымянный_градиент_28"/><linearGradient id="Безымянный_градиент_28-4" x1="279.07" y1="36.41" x2="290.76" y2="36.41" xlink:href="#Безымянный_градиент_28"/><linearGradient id="Безымянный_градиент_28-5" x1="256.31" y1="102.45" x2="278.57" y2="102.45" xlink:href="#Безымянный_градиент_28"/><linearGradient id="Безымянный_градиент_28-6" x1="261.11" y1="56.57" x2="276.88" y2="56.57" xlink:href="#Безымянный_градиент_28"/><linearGradient id="Безымянный_градиент_28-7" x1="283.25" y1="77.07" x2="294.47" y2="77.07" xlink:href="#Безымянный_градиент_28"/><linearGradient id="Безымянный_градиент_28-8" x1="281.22" y1="36.32" x2="288.43" y2="36.32" xlink:href="#Безымянный_градиент_28"/></defs><title>logo</title><g class="cls-1"><g id="Layer_3" data-name="Layer 3"><path class="cls-2" d="M224.29,138.88a54.6,54.6,0,0,0,17.84-7.72,76.22,76.22,0,0,1-16.43,11.72A75.83,75.83,0,1,1,242.94,21.27c-.46-.32-.93-.63-1.41-.94Q228,11.62,208.76,11.61q-38.92,0-55.26,34.52l34,9.45q6-15.51,20.7-15.51,18.86,0,20.42,23.22H188.75V83.94c.93.91,1.86,1.83,2.77,2.76h38.36q-.19,11-5.7,18.31-4.55,6-12.89,7.07a29.49,29.49,0,0,1-3.72.23q-17.35,0-22.77-18.45l-35.43,6a60.1,60.1,0,0,0,21,29.69q14.82,11.25,37.22,11.25A70.71,70.71,0,0,0,224.29,138.88Z" transform="translate(0)"/><path class="cls-3" d="M225.7,142.88A75.86,75.86,0,0,1,119.76,47.94a134.25,134.25,0,0,1,69,36c.93.91,1.86,1.83,2.77,2.76a145.05,145.05,0,0,1,19.77,25.38,29.49,29.49,0,0,1-3.72.23q-17.35,0-22.77-18.45l-35.43,6a60.1,60.1,0,0,0,21,29.69q14.82,11.25,37.22,11.25a70.71,70.71,0,0,0,16.72-1.89C224.78,140.2,225.25,141.54,225.7,142.88Z" transform="translate(0)"/><path class="cls-4" d="M188.75,83.94V86.7h2.77C190.61,85.77,189.68,84.85,188.75,83.94Zm72.66-40.25a51.88,51.88,0,0,0-18.47-22.42,75.82,75.82,0,0,1-.81,109.89,54.72,54.72,0,0,0,9.09-7.65q16.56-17.25,16.57-48.19A78.42,78.42,0,0,0,261.41,43.69Z" transform="translate(0)"/><path class="cls-4" d="M224.29,138.88a70.71,70.71,0,0,1-16.72,1.89q-22.4,0-37.22-11.25a60.1,60.1,0,0,1-21-29.69l35.43-6q5.41,18.45,22.77,18.45a29.49,29.49,0,0,0,3.72-.23A149.17,149.17,0,0,1,224.29,138.88Z" transform="translate(0)"/><path class="cls-4" d="M266.11,75.82a75.62,75.62,0,0,1-24,55.34,54.6,54.6,0,0,1-17.84,7.72,149.17,149.17,0,0,0-13-26.8q8.36-1,12.89-7.07,5.52-7.29,5.7-18.31H191.52c-.91-.93-1.84-1.85-2.77-2.76V63.29h39.84Q227,40.07,208.17,40.07q-14.73,0-20.7,15.51l-34-9.45q16.33-34.51,55.26-34.52,19.28,0,32.77,8.72c.48.31.95.62,1.41.94A75.57,75.57,0,0,1,266.11,75.82Z" transform="translate(0)"/><rect class="cls-5" x="253.96" y="88.97" width="26.94" height="26.94" rx="4.35" ry="4.35"/><rect class="cls-6" x="258.77" y="46.34" width="20.45" height="20.45" rx="3.94" ry="3.94"/><rect class="cls-7" x="280.91" y="69.12" width="15.9" height="15.9" rx="2.78" ry="2.78"/><rect class="cls-8" x="279.07" y="30.57" width="11.69" height="11.69" rx="2.15" ry="2.15"/><path class="cls-9" d="M276.56,91.31H258.32a2,2,0,0,0-2,2v18.24a2,2,0,0,0,2,2h18.24a2,2,0,0,0,2-2V93.33A2,2,0,0,0,276.56,91.31Z" transform="translate(0)"/><path class="cls-10" d="M262.71,48.68h12.56a1.6,1.6,0,0,1,1.6,1.6V62.85a1.61,1.61,0,0,1-1.61,1.61H262.71a1.6,1.6,0,0,1-1.6-1.6V50.29A1.61,1.61,0,0,1,262.71,48.68Z"/><rect class="cls-11" x="283.25" y="71.46" width="11.22" height="11.22" rx="0.44" ry="0.44"/><rect class="cls-12" x="281.22" y="32.72" width="7.2" height="7.2"/><g class="cls-13"><ellipse class="cls-14" cx="193.37" cy="173.6" rx="86.91" ry="10.79"/><ellipse class="cls-15" cx="193.37" cy="173.6" rx="86.17" ry="10.7"/><ellipse class="cls-16" cx="193.37" cy="173.6" rx="85.42" ry="10.6"/><ellipse class="cls-17" cx="193.37" cy="173.6" rx="84.68" ry="10.51"/><ellipse class="cls-18" cx="193.37" cy="173.6" rx="83.93" ry="10.42"/><ellipse class="cls-19" cx="193.37" cy="173.6" rx="83.19" ry="10.33"/><ellipse class="cls-20" cx="193.37" cy="173.6" rx="82.44" ry="10.23"/><ellipse class="cls-21" cx="193.37" cy="173.6" rx="81.7" ry="10.14"/><ellipse class="cls-22" cx="193.37" cy="173.6" rx="80.95" ry="10.05"/><ellipse class="cls-23" cx="193.37" cy="173.6" rx="80.21" ry="9.96"/><ellipse class="cls-24" cx="193.37" cy="173.6" rx="79.46" ry="9.86"/><ellipse class="cls-25" cx="193.37" cy="173.6" rx="78.72" ry="9.77"/><ellipse class="cls-26" cx="193.37" cy="173.6" rx="77.97" ry="9.68"/><ellipse class="cls-27" cx="193.37" cy="173.6" rx="77.23" ry="9.59"/><ellipse class="cls-28" cx="193.37" cy="173.6" rx="76.48" ry="9.49"/><ellipse class="cls-29" cx="193.37" cy="173.6" rx="75.73" ry="9.4"/><ellipse class="cls-30" cx="193.37" cy="173.6" rx="74.99" ry="9.31"/><ellipse class="cls-31" cx="193.37" cy="173.6" rx="74.24" ry="9.22"/><ellipse class="cls-32" cx="193.37" cy="173.6" rx="73.5" ry="9.12"/><ellipse class="cls-33" cx="193.37" cy="173.6" rx="72.75" ry="9.03"/><ellipse class="cls-34" cx="193.37" cy="173.6" rx="72.01" ry="8.94"/><ellipse class="cls-35" cx="193.37" cy="173.6" rx="71.26" ry="8.85"/><path class="cls-36" d="M263.89,173.6c0,4.84-31.58,8.76-70.52,8.76s-70.52-3.92-70.52-8.76,31.57-8.75,70.52-8.75S263.89,168.77,263.89,173.6Z" transform="translate(0)"/><path class="cls-37" d="M263.14,173.6c0,4.79-31.24,8.66-69.77,8.66s-69.77-3.87-69.77-8.66,31.23-8.66,69.77-8.66S263.14,168.82,263.14,173.6Z" transform="translate(0)"/><path class="cls-38" d="M262.4,173.6c0,4.74-30.91,8.57-69,8.57s-69-3.83-69-8.57,30.91-8.56,69-8.56S262.4,168.87,262.4,173.6Z" transform="translate(0)"/><path class="cls-39" d="M261.65,173.6c0,4.68-30.57,8.48-68.28,8.48s-68.28-3.8-68.28-8.48,30.57-8.47,68.28-8.47S261.65,168.92,261.65,173.6Z" transform="translate(0)"/><path class="cls-40" d="M260.91,173.6c0,4.63-30.24,8.39-67.54,8.39s-67.54-3.76-67.54-8.39,30.24-8.38,67.54-8.38S260.91,169,260.91,173.6Z" transform="translate(0)"/><path class="cls-41" d="M260.16,173.6c0,4.58-29.9,8.29-66.79,8.29s-66.79-3.71-66.79-8.29,29.9-8.29,66.79-8.29S260.16,169,260.16,173.6Z" transform="translate(0)"/><path class="cls-42" d="M259.41,173.6c0,4.53-29.57,8.2-66,8.2s-66.05-3.67-66.05-8.2,29.57-8.19,66.05-8.19S259.41,169.08,259.41,173.6Z" transform="translate(0)"/><path class="cls-43" d="M258.67,173.6c0,4.48-29.24,8.11-65.3,8.11s-65.3-3.63-65.3-8.11,29.23-8.1,65.3-8.1S258.67,169.13,258.67,173.6Z" transform="translate(0)"/><path class="cls-44" d="M257.92,173.6c0,4.43-28.9,8-64.55,8s-64.56-3.59-64.56-8,28.91-8,64.56-8S257.92,169.18,257.92,173.6Z" transform="translate(0)"/><path class="cls-45" d="M257.18,173.6c0,4.38-28.57,7.92-63.81,7.92s-63.81-3.54-63.81-7.92,28.57-7.92,63.81-7.92S257.18,169.23,257.18,173.6Z" transform="translate(0)"/><path class="cls-46" d="M256.43,173.6c0,4.33-28.23,7.83-63.06,7.83s-63.07-3.5-63.07-7.83,28.24-7.82,63.07-7.82S256.43,169.28,256.43,173.6Z" transform="translate(0)"/><path class="cls-47" d="M255.69,173.6c0,4.28-27.9,7.74-62.32,7.74s-62.32-3.46-62.32-7.74,27.9-7.73,62.32-7.73S255.69,169.33,255.69,173.6Z" transform="translate(0)"/><path class="cls-48" d="M254.94,173.6c0,4.22-27.56,7.65-61.57,7.65s-61.58-3.43-61.58-7.65S159.36,166,193.37,166,254.94,169.38,254.94,173.6Z" transform="translate(0)"/><path class="cls-49" d="M254.2,173.6c0,4.17-27.24,7.55-60.83,7.55s-60.83-3.38-60.83-7.55,27.23-7.55,60.83-7.55S254.2,169.43,254.2,173.6Z" transform="translate(0)"/><path class="cls-50" d="M253.45,173.6c0,4.12-26.9,7.46-60.08,7.46s-60.09-3.34-60.09-7.46,26.9-7.45,60.09-7.45S253.45,169.49,253.45,173.6Z" transform="translate(0)"/><path class="cls-51" d="M252.71,173.6c0,4.07-26.57,7.37-59.34,7.37S134,177.67,134,173.6s26.57-7.36,59.34-7.36S252.71,169.54,252.71,173.6Z" transform="translate(0)"/><path class="cls-52" d="M252,173.6c0,4-26.23,7.28-58.59,7.28s-58.6-3.26-58.6-7.28,26.24-7.27,58.6-7.27S252,169.59,252,173.6Z" transform="translate(0)"/><path class="cls-53" d="M251.22,173.6c0,4-25.9,7.18-57.85,7.18s-57.85-3.21-57.85-7.18,25.9-7.18,57.85-7.18S251.22,169.64,251.22,173.6Z" transform="translate(0)"/><path class="cls-54" d="M250.47,173.6c0,3.92-25.56,7.09-57.1,7.09s-57.1-3.17-57.1-7.09,25.56-7.08,57.1-7.08S250.47,169.69,250.47,173.6Z" transform="translate(0)"/><path class="cls-55" d="M249.73,173.6c0,3.87-25.24,7-56.36,7s-56.36-3.13-56.36-7,25.23-7,56.36-7S249.73,169.74,249.73,173.6Z" transform="translate(0)"/><path class="cls-56" d="M249,173.6c0,3.82-24.9,6.91-55.61,6.91s-55.61-3.09-55.61-6.91,24.89-6.9,55.61-6.9S249,169.79,249,173.6Z" transform="translate(0)"/><path class="cls-57" d="M248.24,173.6c0,3.76-24.57,6.81-54.87,6.81s-54.87-3-54.87-6.81,24.57-6.81,54.87-6.81S248.24,169.84,248.24,173.6Z" transform="translate(0)"/><path class="cls-58" d="M247.49,173.6c0,3.71-24.23,6.72-54.12,6.72s-54.12-3-54.12-6.72,24.23-6.71,54.12-6.71S247.49,169.89,247.49,173.6Z" transform="translate(0)"/><path class="cls-59" d="M246.74,173.6c0,3.66-23.89,6.63-53.37,6.63s-53.38-3-53.38-6.63,23.9-6.62,53.38-6.62S246.74,169.94,246.74,173.6Z" transform="translate(0)"/><path class="cls-60" d="M246,173.6c0,3.61-23.56,6.54-52.63,6.54s-52.63-2.93-52.63-6.54,23.56-6.53,52.63-6.53S246,170,246,173.6Z" transform="translate(0)"/><path class="cls-61" d="M245.25,173.6c0,3.56-23.23,6.44-51.88,6.44s-51.89-2.88-51.89-6.44,23.23-6.44,51.89-6.44S245.25,170.05,245.25,173.6Z" transform="translate(0)"/><path class="cls-62" d="M244.51,173.6c0,3.51-22.9,6.35-51.14,6.35s-51.14-2.84-51.14-6.35,22.89-6.34,51.14-6.34S244.51,170.1,244.51,173.6Z" transform="translate(0)"/><path class="cls-63" d="M243.76,173.6c0,3.46-22.56,6.26-50.39,6.26s-50.4-2.8-50.4-6.26,22.57-6.25,50.4-6.25S243.76,170.15,243.76,173.6Z" transform="translate(0)"/><path class="cls-64" d="M243,173.6c0,3.41-22.23,6.17-49.65,6.17s-49.65-2.76-49.65-6.17,22.23-6.16,49.65-6.16S243,170.2,243,173.6Z" transform="translate(0)"/><path class="cls-65" d="M242.27,173.6c0,3.36-21.89,6.07-48.9,6.07s-48.91-2.71-48.91-6.07,21.9-6.07,48.91-6.07S242.27,170.25,242.27,173.6Z" transform="translate(0)"/><path class="cls-66" d="M241.53,173.6c0,3.31-21.56,6-48.16,6s-48.16-2.67-48.16-6,21.56-6,48.16-6S241.53,170.3,241.53,173.6Z" transform="translate(0)"/><path class="cls-67" d="M240.78,173.6c0,3.25-21.23,5.89-47.41,5.89S146,176.85,146,173.6s21.23-5.88,47.42-5.88S240.78,170.35,240.78,173.6Z" transform="translate(0)"/><path class="cls-68" d="M240,173.6c0,3.2-20.9,5.8-46.67,5.8s-46.67-2.6-46.67-5.8,20.89-5.79,46.67-5.79S240,170.4,240,173.6Z" transform="translate(0)"/><path class="cls-69" d="M239.29,173.6c0,3.15-20.56,5.7-45.92,5.7s-45.93-2.55-45.93-5.7,20.57-5.7,45.93-5.7S239.29,170.46,239.29,173.6Z" transform="translate(0)"/><path class="cls-70" d="M238.55,173.6c0,3.1-20.23,5.61-45.18,5.61s-45.18-2.51-45.18-5.61,20.23-5.6,45.18-5.6S238.55,170.51,238.55,173.6Z" transform="translate(0)"/><path class="cls-71" d="M237.8,173.6c0,3.05-19.89,5.52-44.43,5.52s-44.43-2.47-44.43-5.52,19.89-5.51,44.43-5.51S237.8,170.56,237.8,173.6Z" transform="translate(0)"/><path class="cls-72" d="M237.06,173.6c0,3-19.56,5.43-43.69,5.43s-43.69-2.43-43.69-5.43,19.56-5.42,43.69-5.42S237.06,170.61,237.06,173.6Z" transform="translate(0)"/><path class="cls-73" d="M236.31,173.6c0,3-19.23,5.33-42.94,5.33s-42.94-2.38-42.94-5.33,19.22-5.33,42.94-5.33S236.31,170.66,236.31,173.6Z" transform="translate(0)"/><path class="cls-74" d="M235.57,173.6c0,2.9-18.9,5.24-42.2,5.24s-42.2-2.34-42.2-5.24,18.89-5.23,42.2-5.23S235.57,170.71,235.57,173.6Z" transform="translate(0)"/><path class="cls-75" d="M234.82,173.6c0,2.85-18.56,5.15-41.45,5.15s-41.45-2.3-41.45-5.15,18.55-5.14,41.45-5.14S234.82,170.76,234.82,173.6Z" transform="translate(0)"/><path class="cls-76" d="M234.08,173.6c0,2.79-18.23,5.06-40.71,5.06s-40.71-2.27-40.71-5.06,18.23-5,40.71-5S234.08,170.81,234.08,173.6Z" transform="translate(0)"/><path class="cls-77" d="M233.33,173.6c0,2.74-17.89,5-40,5s-40-2.22-40-5,17.89-5,40-5S233.33,170.86,233.33,173.6Z" transform="translate(0)"/><path class="cls-78" d="M232.58,173.6c0,2.69-17.55,4.87-39.21,4.87s-39.22-2.18-39.22-4.87,17.56-4.86,39.22-4.86S232.58,170.92,232.58,173.6Z" transform="translate(0)"/><path class="cls-79" d="M231.84,173.6c0,2.64-17.22,4.78-38.47,4.78s-38.47-2.14-38.47-4.78,17.22-4.77,38.47-4.77S231.84,171,231.84,173.6Z" transform="translate(0)"/><path class="cls-80" d="M231.09,173.6c0,2.59-16.89,4.69-37.72,4.69s-37.73-2.1-37.73-4.69,16.89-4.68,37.73-4.68S231.09,171,231.09,173.6Z" transform="translate(0)"/><path class="cls-81" d="M230.35,173.6c0,2.54-16.56,4.59-37,4.59s-37-2.05-37-4.59,16.55-4.59,37-4.59S230.35,171.07,230.35,173.6Z" transform="translate(0)"/><path class="cls-82" d="M229.6,173.6c0,2.49-16.22,4.5-36.23,4.5s-36.24-2-36.24-4.5,16.23-4.49,36.24-4.49S229.6,171.12,229.6,173.6Z" transform="translate(0)"/><path class="cls-83" d="M228.86,173.6c0,2.44-15.89,4.41-35.49,4.41s-35.49-2-35.49-4.41,15.89-4.4,35.49-4.4S228.86,171.17,228.86,173.6Z" transform="translate(0)"/><path class="cls-84" d="M228.11,173.6c0,2.39-15.55,4.32-34.74,4.32s-34.75-1.93-34.75-4.32,15.56-4.31,34.75-4.31S228.11,171.22,228.11,173.6Z" transform="translate(0)"/><path class="cls-85" d="M227.37,173.6c0,2.33-15.22,4.22-34,4.22s-34-1.89-34-4.22,15.22-4.22,34-4.22S227.37,171.27,227.37,173.6Z" transform="translate(0)"/><path class="cls-86" d="M226.62,173.6c0,2.28-14.89,4.13-33.25,4.13s-33.26-1.85-33.26-4.13,14.89-4.12,33.26-4.12S226.62,171.32,226.62,173.6Z" transform="translate(0)"/><path class="cls-87" d="M225.88,173.6c0,2.23-14.56,4-32.51,4s-32.51-1.81-32.51-4,14.55-4,32.51-4S225.88,171.38,225.88,173.6Z" transform="translate(0)"/><path class="cls-88" d="M225.13,173.6c0,2.18-14.22,4-31.76,4s-31.77-1.77-31.77-4,14.23-3.94,31.77-3.94S225.13,171.43,225.13,173.6Z" transform="translate(0)"/><path class="cls-89" d="M224.39,173.6c0,2.13-13.89,3.85-31,3.85s-31-1.72-31-3.85,13.89-3.85,31-3.85S224.39,171.48,224.39,173.6Z" transform="translate(0)"/><path class="cls-90" d="M223.64,173.6c0,2.08-13.55,3.76-30.27,3.76s-30.27-1.68-30.27-3.76,13.55-3.75,30.27-3.75S223.64,171.53,223.64,173.6Z" transform="translate(0)"/><path class="cls-91" d="M222.9,173.6c0,2-13.22,3.67-29.53,3.67s-29.53-1.64-29.53-3.67,13.22-3.66,29.53-3.66S222.9,171.58,222.9,173.6Z" transform="translate(0)"/><path class="cls-92" d="M222.15,173.6c0,2-12.89,3.58-28.78,3.58s-28.78-1.6-28.78-3.58S177.47,170,193.37,170,222.15,171.63,222.15,173.6Z" transform="translate(0)"/><path class="cls-93" d="M221.41,173.6c0,1.93-12.56,3.48-28,3.48s-28-1.55-28-3.48,12.55-3.48,28-3.48S221.41,171.68,221.41,173.6Z" transform="translate(0)"/><path class="cls-94" d="M220.66,173.6c0,1.87-12.22,3.39-27.29,3.39s-27.29-1.52-27.29-3.39,12.22-3.38,27.29-3.38S220.66,171.73,220.66,173.6Z" transform="translate(0)"/><path class="cls-95" d="M219.91,173.6c0,1.82-11.88,3.3-26.54,3.3s-26.55-1.48-26.55-3.3,11.89-3.29,26.55-3.29S219.91,171.78,219.91,173.6Z" transform="translate(0)"/><path class="cls-96" d="M219.17,173.6c0,1.77-11.55,3.21-25.8,3.21s-25.8-1.44-25.8-3.21,11.55-3.2,25.8-3.2S219.17,171.84,219.17,173.6Z" transform="translate(0)"/><path class="cls-97" d="M218.42,173.6c0,1.72-11.21,3.11-25,3.11s-25.06-1.39-25.06-3.11,11.22-3.11,25.06-3.11S218.42,171.89,218.42,173.6Z" transform="translate(0)"/><path class="cls-98" d="M217.68,173.6c0,1.67-10.89,3-24.31,3s-24.31-1.35-24.31-3,10.88-3,24.31-3S217.68,171.94,217.68,173.6Z" transform="translate(0)"/><path class="cls-99" d="M216.93,173.6c0,1.62-10.55,2.93-23.56,2.93s-23.57-1.31-23.57-2.93,10.55-2.92,23.57-2.92S216.93,172,216.93,173.6Z" transform="translate(0)"/><path class="cls-100" d="M216.19,173.6c0,1.57-10.22,2.84-22.82,2.84s-22.82-1.27-22.82-2.84,10.22-2.83,22.82-2.83S216.19,172,216.19,173.6Z" transform="translate(0)"/><path class="cls-101" d="M215.44,173.6c0,1.52-9.88,2.74-22.07,2.74s-22.08-1.22-22.08-2.74,9.89-2.74,22.08-2.74S215.44,172.09,215.44,173.6Z" transform="translate(0)"/><path class="cls-102" d="M214.7,173.6c0,1.47-9.55,2.65-21.33,2.65S172,175.07,172,173.6s9.55-2.64,21.33-2.64S214.7,172.14,214.7,173.6Z" transform="translate(0)"/><path class="cls-103" d="M214,173.6c0,1.41-9.21,2.56-20.58,2.56s-20.59-1.15-20.59-2.56,9.22-2.55,20.59-2.55S214,172.19,214,173.6Z" transform="translate(0)"/><path class="cls-104" d="M213.21,173.6c0,1.36-8.88,2.47-19.84,2.47s-19.84-1.11-19.84-2.47,8.88-2.46,19.84-2.46S213.21,172.24,213.21,173.6Z" transform="translate(0)"/><path class="cls-105" d="M212.46,173.6c0,1.31-8.55,2.37-19.09,2.37s-19.1-1.06-19.1-2.37,8.55-2.37,19.1-2.37S212.46,172.3,212.46,173.6Z" transform="translate(0)"/><path class="cls-106" d="M211.72,173.6c0,1.26-8.22,2.28-18.35,2.28s-18.35-1-18.35-2.28,8.21-2.27,18.35-2.27S211.72,172.35,211.72,173.6Z" transform="translate(0)"/><path class="cls-107" d="M211,173.6c0,1.21-7.88,2.19-17.6,2.19s-17.6-1-17.6-2.19,7.88-2.18,17.6-2.18S211,172.4,211,173.6Z" transform="translate(0)"/><path class="cls-108" d="M210.23,173.6c0,1.16-7.55,2.1-16.86,2.1s-16.86-.94-16.86-2.1,7.55-2.09,16.86-2.09S210.23,172.45,210.23,173.6Z" transform="translate(0)"/><path class="cls-109" d="M209.48,173.6c0,1.11-7.21,2-16.11,2s-16.11-.89-16.11-2,7.21-2,16.11-2S209.48,172.5,209.48,173.6Z" transform="translate(0)"/><path class="cls-110" d="M208.74,173.6c0,1.06-6.88,1.91-15.37,1.91S178,174.66,178,173.6s6.88-1.9,15.37-1.9S208.74,172.55,208.74,173.6Z" transform="translate(0)"/><path class="cls-111" d="M208,173.6c0,1-6.55,1.82-14.62,1.82s-14.62-.81-14.62-1.82,6.54-1.81,14.62-1.81S208,172.6,208,173.6Z" transform="translate(0)"/><path class="cls-112" d="M207.24,173.6c0,1-6.21,1.73-13.87,1.73s-13.88-.77-13.88-1.73,6.21-1.72,13.88-1.72S207.24,172.65,207.24,173.6Z" transform="translate(0)"/><path class="cls-113" d="M206.5,173.6c0,.9-5.88,1.63-13.13,1.63s-13.13-.73-13.13-1.63,5.88-1.63,13.13-1.63S206.5,172.7,206.5,173.6Z" transform="translate(0)"/><path class="cls-114" d="M205.75,173.6c0,.85-5.54,1.54-12.38,1.54S181,174.45,181,173.6s5.55-1.53,12.39-1.53S205.75,172.75,205.75,173.6Z" transform="translate(0)"/><path class="cls-115" d="M205,173.6c0,.8-5.21,1.45-11.64,1.45s-11.64-.65-11.64-1.45,5.21-1.44,11.64-1.44S205,172.81,205,173.6Z" transform="translate(0)"/></g><text class="cls-116" transform="translate(0 227.34)">Электроника</text></g></g></svg>